Coordinates
version=1
nRows=5
nColumns=42
inDegrees=yes

Units are S.I. units (second, meters, Newtons, ...)
If the header above contains a line with 'inDegrees', this indicates whether rotational values are in degrees (yes) or radians (no).

endheader
time	pelvis_tilt	pelvis_list	pelvis_rotation	pelvis_tx	pelvis_ty	pelvis_tz	hip_flexion_r	hip_adduction_r	hip_rotation_r	knee_angle_r	knee_adduction_r	knee_angle_r_beta	ankle_angle_r	subtalar_angle_r	mtp_angle_r	hip_flexion_l	hip_adduction_l	hip_rotation_l	knee_angle_l	knee_adduction_l	knee_angle_l_beta	ankle_angle_l	subtalar_angle_l	mtp_angle_l	lumbar_extension	lumbar_bending	lumbar_rotation	arm_flex_r	arm_add_r	arm_rot_r	elbow_flex_r	pro_sup_r	wrist_flex_r	wrist_dev_r	arm_flex_l	arm_add_l	arm_rot_l	elbow_flex_l	pro_sup_l	wrist_flex_l	wrist_dev_l
      1.89000000	     -3.95079290	     -3.30703244	     -4.17152957	      0.73220831	      0.92987774	      0.22484187	    -11.09163360	      6.00086107	     -4.41671832	     18.13606245	     -2.99037738	      0.31653400	     17.66939583	     -3.31397255	     -7.50574770	     34.61892216	     -5.41232017	     -9.91099093	     15.38227700	     -1.82568817	      0.26847138	     -1.29809842	     -6.53742321	     -7.50574770	     -8.29541254	      1.94493701	      7.74707984	      5.96080079	    -10.56550756	      3.70819100	     41.49718857	     90.00000001	      0.00000000	      0.00000000	     -2.42932777	     -7.90156495	    -21.85698567	     19.39668001	     90.00000001	      0.00000000	      0.00000000
      1.90000000	     -4.05339483	     -2.79146790	     -4.19254613	      0.74799078	      0.92888379	      0.22399755	    -11.11204318	      5.33842001	     -4.05177618	     19.72546282	     -3.22243270	      0.34427427	     16.67675304	     -3.73806432	     -7.50564197	     34.94505734	     -4.74450808	    -10.16287635	     17.21373594	     -2.26646857	      0.30043637	     -2.56038684	     -7.32687655	     -7.50564197	     -8.13441626	      1.12781488	      7.52558503	      5.84053944	    -10.25118670	      3.63901330	     41.45570949	     90.00000001	      0.00000000	      0.00000000	     -2.81673830	     -8.09836024	    -22.14784975	     18.84418016	     90.00000001	      0.00000000	      0.00000000
      1.91000000	     -4.21400677	     -2.23483265	     -4.08285037	      0.76380523	      0.92837125	      0.22297219	    -10.97723049	      4.67933661	     -3.34059380	     21.48657367	     -3.26164298	      0.37501146	     15.05878395	     -5.23333772	     -7.50523342	     35.15249324	     -3.89407093	     -9.46985208	     18.82397971	     -2.52069653	      0.32854042	     -4.44985519	     -9.68853572	     -7.50523342	     -7.89040768	      0.26886526	      7.20270710	      5.68770402	     -9.75565280	      2.98151946	     41.20274758	     90.00000001	      0.00000000	      0.00000000	     -2.85835886	     -8.29059893	    -23.23199334	     17.76368233	     90.00000001	      0.00000000	      0.00000000
      1.92000000	     -4.21501360	     -1.54367098	     -3.92449314	      0.77988088	      0.92842372	      0.22173069	    -10.76880414	      3.83086455	     -3.31072987	     23.56390013	     -3.42228466	      0.41126764	     13.19809589	     -5.91892405	     -7.50514613	     35.27446870	     -2.91210993	     -9.52920398	     20.62443717	     -2.96864353	      0.35996434	     -5.53061332	    -10.36743571	     -7.50514613	     -7.80856587	     -0.74414004	      6.80396144	      5.39704225	     -9.39095586	      2.87555187	     41.08360693	     90.00000001	      0.00000000	      0.00000000	     -3.21263190	     -8.52151552	    -23.49155979	     17.41621814	     90.00000001	      0.00000000	      0.00000000
      1.93000000	     -4.29175425	     -0.89201184	     -3.65088224	      0.79591586	      0.92891868	      0.22030526	    -10.33238225	      3.04548173	     -3.12393891	     25.87225274	     -3.38661361	      0.45155600	     10.82414716	     -7.33589211	     -7.50500430	     35.32524678	     -1.88710910	     -8.97125430	     22.21415906	     -3.18927100	      0.38771022	     -6.62591132	    -11.60348178	     -7.50500430	     -7.64914894	     -1.68866229	      6.34369855	      5.11137410	     -8.98163537	      2.46700048	     40.77910754	     90.00000001	      0.00000000	      0.00000000	     -3.40456886	     -8.70888619	    -23.88216888	     16.95310791	     90.00000001	      0.00000000	      0.00000000
